<svg width="11" height="13" viewBox="0 0 11 13" fill="none" xmlns="http://www.w3.org/2000/svg">
<path d="M4.27778 4.7C4.61528 4.7 4.88889 4.96863 4.88889 5.3V9.5C4.88889 9.83137 4.61528 10.1 4.27778 10.1C3.94027 10.1 3.66667 9.83137 3.66667 9.5V5.3C3.66667 4.96863 3.94027 4.7 4.27778 4.7Z" fill="white"/>
<path d="M6.72222 4.7C7.05973 4.7 7.33333 4.96863 7.33333 5.3V9.5C7.33333 9.83137 7.05973 10.1 6.72222 10.1C6.38472 10.1 6.11111 9.83137 6.11111 9.5V5.3C6.11111 4.96863 6.38472 4.7 6.72222 4.7Z" fill="white"/>
<path fill-rule="evenodd" clip-rule="evenodd" d="M6.11111 0.5C6.38742 0.5 6.62525 0.499767 6.82129 0.512891C7.02285 0.526393 7.22487 0.556107 7.42405 0.63711C7.87334 0.8199 8.22994 1.17073 8.41591 1.61152C8.49833 1.80696 8.52866 2.00488 8.54243 2.20273C8.5446 2.23405 8.54449 2.26653 8.54601 2.3H10.3889C10.7264 2.3 11 2.56863 11 2.9C11 3.23137 10.7264 3.5 10.3889 3.5H9.77778V9.98164C9.77778 10.307 9.7784 10.5873 9.75928 10.8172C9.73955 11.0541 9.69557 11.2899 9.57785 11.5168C9.40203 11.8556 9.12117 12.1312 8.77637 12.3037C8.54532 12.4193 8.30511 12.4625 8.0638 12.4818C7.82972 12.5006 7.54417 12.5 7.21278 12.5H3.78722C3.45571 12.5 3.16983 12.5006 2.9356 12.4818C2.69432 12.4625 2.45411 12.4193 2.22304 12.3037C1.87761 12.1309 1.59762 11.8549 1.42215 11.5168C1.30442 11.2899 1.26047 11.0543 1.24072 10.8172C1.22156 10.587 1.22222 10.306 1.22222 9.97988V3.5H0.611111C0.273604 3.5 0 3.23137 0 2.9C1.57485e-07 2.56863 0.273604 2.3 0.611111 2.3H2.45399C2.4555 2.26653 2.4554 2.23405 2.45757 2.20273C2.47132 2.0049 2.50165 1.80701 2.58409 1.61152C2.77004 1.17077 3.12651 0.81992 3.57595 0.63711C3.77516 0.556098 3.97714 0.526391 4.17871 0.512891C4.37477 0.499773 4.61261 0.5 4.88889 0.5H6.11111ZM2.44444 9.97988C2.44444 10.3258 2.44462 10.5494 2.45877 10.7193C2.47231 10.8819 2.49588 10.9421 2.51128 10.9719C2.57015 11.0853 2.6636 11.1777 2.77805 11.235C2.80818 11.25 2.86974 11.2727 3.03526 11.2859C3.20817 11.2998 3.43555 11.3 3.78722 11.3H7.21278C7.56425 11.3 7.79141 11.2998 7.96414 11.2859C8.1293 11.2727 8.19113 11.25 8.22135 11.235C8.33647 11.1774 8.43079 11.0846 8.48931 10.9719C8.50466 10.9422 8.52774 10.8818 8.54123 10.7199C8.55536 10.5503 8.55556 10.3269 8.55556 9.98164V3.5H2.44444V9.97988ZM4.88889 1.7C4.5958 1.7 4.40653 1.70026 4.26166 1.70996C4.12237 1.71929 4.06927 1.73537 4.04384 1.7457C3.89443 1.80646 3.77537 1.92312 3.71322 2.07031C3.70268 2.09529 3.68632 2.14755 3.67681 2.28418C3.67645 2.28934 3.67655 2.29473 3.67622 2.3H7.32378C7.32345 2.29474 7.32355 2.28932 7.32319 2.28418C7.31367 2.14761 7.29734 2.09533 7.28678 2.07031C7.22467 1.92322 7.10562 1.80651 6.95616 1.7457C6.93074 1.73536 6.87761 1.7193 6.73834 1.70996C6.59351 1.70026 6.40421 1.7 6.11111 1.7H4.88889Z" fill="white"/>
</svg>
