<svg width="8" height="8" viewBox="0 0 8 8" fill="none" xmlns="http://www.w3.org/2000/svg">
<path d="M6.53999 0.53999C6.79383 0.286149 7.20607 0.286149 7.45991 0.53999C7.7137 0.793835 7.71374 1.20609 7.45991 1.45991L4.91987 3.99995L7.45991 6.53999C7.71367 6.79384 7.71373 7.2061 7.45991 7.45991C7.2061 7.71373 6.79384 7.71367 6.53999 7.45991L3.99995 4.91987L1.45991 7.45991C1.20609 7.71374 0.793835 7.7137 0.53999 7.45991C0.286149 7.20607 0.286149 6.79383 0.53999 6.53999L3.08003 3.99995L0.53999 1.45991C0.286149 1.20607 0.286149 0.793831 0.53999 0.53999C0.793831 0.286149 1.20607 0.286149 1.45991 0.53999L3.99995 3.08003L6.53999 0.53999Z" fill="white"/>
</svg>
