<svg width="10" height="10" viewBox="0 0 10 10" fill="none" xmlns="http://www.w3.org/2000/svg">
<path d="M5.0249 6.2251C5.30104 6.2251 5.5249 6.44896 5.5249 6.7251V6.7749C5.5249 6.90782 5.47209 7.03558 5.37793 7.12939C5.28374 7.22322 5.15589 7.27542 5.02295 7.2749H4.97314C4.69777 7.27382 4.4751 7.05028 4.4751 6.7749V6.7251C4.4751 6.44896 4.69896 6.2251 4.9751 6.2251H5.0249Z" fill="white"/>
<path d="M5 2.7251C5.27614 2.7251 5.5 2.94896 5.5 3.2251V5.2251C5.5 5.50124 5.27614 5.7251 5 5.7251C4.72386 5.7251 4.5 5.50124 4.5 5.2251V3.2251C4.5 2.94896 4.72386 2.7251 5 2.7251Z" fill="white"/>
<path fill-rule="evenodd" clip-rule="evenodd" d="M5 0C7.76142 0 10 2.23858 10 5C10 7.76142 7.76142 10 5 10C2.23858 10 0 7.76142 0 5C0 2.23858 2.23858 0 5 0ZM5 1C2.79086 1 1 2.79086 1 5C1 7.20914 2.79086 9 5 9C7.20914 9 9 7.20914 9 5C9 2.79086 7.20914 1 5 1Z" fill="white"/>
</svg>
