<svg width="12" height="13" viewBox="0 0 12 13" fill="none" xmlns="http://www.w3.org/2000/svg">
<path d="M2.02384 5.50562C2.29831 5.23134 2.7434 5.23137 3.01789 5.50562C3.29243 5.78013 3.29243 6.22578 3.01789 6.5003L2.02384 7.49429C1.20025 8.31794 1.20039 9.65287 2.02384 10.4763C2.84722 11.2996 4.18229 11.2996 5.00601 10.4763L5.99939 9.48227C6.27379 9.20773 6.71881 9.20793 6.99344 9.48227C7.26804 9.75666 7.26851 10.2016 6.99413 10.4763L6.00076 11.4703C4.62821 12.8427 2.40184 12.8436 1.02909 11.4709C-0.34363 10.0983 -0.342659 7.87277 1.02978 6.5003L2.02384 5.50562Z" fill="white"/>
<path d="M7.49116 4.01463C7.76568 3.74013 8.21137 3.74015 8.48591 4.01463C8.76044 4.28914 8.76043 4.7348 8.48591 5.00931L4.50898 8.98528C4.23445 9.25975 3.78944 9.25978 3.51492 8.98528C3.24044 8.71078 3.24044 8.26579 3.51492 7.99129L7.49116 4.01463Z" fill="white"/>
<path d="M6.00007 1.52896C7.37278 0.15652 9.59782 0.157277 10.9704 1.52965C12.3429 2.9021 12.3433 5.12703 10.9711 6.49961L9.97699 7.4936C9.70254 7.76813 9.25753 7.76868 8.98293 7.49429C8.70835 7.21986 8.70851 6.77488 8.98293 6.5003L9.97631 5.50562C10.7999 4.68206 10.7999 3.34714 9.97631 2.52364C9.15264 1.70011 7.81764 1.70019 6.99413 2.52364L6.00007 3.51763C5.72557 3.79199 5.28052 3.79198 5.00601 3.51763C4.73152 3.24316 4.7316 2.79816 5.00601 2.52364L6.00007 1.52896Z" fill="white"/>
</svg>
